<svg xmlns="http://www.w3.org/2000/svg" xmlns:v="https://svgstorm.com"
viewBox = "0 0 1024 1024"
width="1024"
height="1024">
<g fill="None" fill-opacity="0.0" stroke="#000000" stroke-opacity="0.00" stroke-width="0.3"><path d="
M 0.00 1024.00 
L 1024.00 1024.00
L 1024.00 0.00
L 0.00 0.00
L 0.00 1024.00
M 763.00 338.00 
C 756.34 328.09 751.24 319.08 743.08 309.92 C 734.93 300.76 728.35 293.69 719.25 285.75 C 710.15 277.81 701.06 272.67 690.97 266.03 C 680.87 259.40 668.95 255.90 657.00 252.00 C 645.04 248.10 627.69 245.99 614.00 247.00 C 600.31 248.01 586.07 250.52 573.99 254.99 C 561.91 259.47 552.11 265.15 541.30 271.30 C 530.50 277.46 521.96 283.71 512.77 290.77 C 503.57 297.82 495.05 304.51 486.75 312.75 C 478.46 320.99 470.72 328.49 463.25 337.25 C 455.77 346.00 447.26 353.50 440.75 362.75 C 434.24 372.00 426.22 379.94 419.30 389.30 C 412.39 398.66 406.29 408.70 399.23 418.23 C 392.17 427.76 386.67 437.10 380.23 447.23 C 373.79 457.36 369.21 468.03 363.68 478.68 C 358.15 489.33 353.73 501.01 350.02 513.02 C 346.32 525.04 343.78 542.00 346.00 555.00 C 348.22 568.00 351.55 580.87 357.31 591.69 C 363.07 602.52 368.34 612.57 374.92 622.08 C 381.50 631.59 389.02 640.65 395.75 650.25 C 402.48 659.84 410.12 667.88 417.25 676.75 C 424.38 685.61 432.10 694.33 439.25 702.75 C 446.40 711.17 454.18 719.86 461.75 728.25 C 469.32 736.63 477.38 744.06 485.25 752.75 C 493.12 761.45 501.23 767.97 509.25 776.75 C 517.27 785.54 528.09 791.04 533.00 800.00
C 517.71 790.59 500.54 782.71 484.77 773.23 C 469.00 763.75 453.08 754.13 438.30 743.70 C 423.52 733.28 408.48 722.33 394.70 711.30 C 380.93 700.27 365.43 689.54 351.92 678.08 C 338.41 666.62 324.99 655.40 311.25 643.75 C 297.52 632.09 282.99 620.39 268.90 610.10 C 254.82 599.81 236.48 588.69 222.26 580.74 C 208.03 572.79 178.85 562.92 185.93 542.93 C 193.00 522.93 203.19 510.97 209.97 491.97 C 216.76 472.98 225.01 456.60 231.32 437.32 C 237.63 418.04 243.65 398.76 249.32 379.32 C 254.99 359.88 260.06 338.55 265.00 319.00 C 269.93 299.44 275.76 278.31 281.78 259.78 C 287.80 241.25 295.14 223.03 302.99 205.99 C 310.85 188.96 321.30 174.04 331.25 158.25 C 341.21 142.47 352.55 129.74 365.23 116.23 C 377.92 102.72 390.50 91.99 406.23 81.23 C 421.97 70.47 439.14 63.83 457.01 57.01 C 474.88 50.19 503.07 45.71 523.00 49.00 C 542.93 52.29 561.30 60.99 578.74 69.26 C 596.19 77.52 610.60 86.94 625.70 98.30 C 640.79 109.66 652.02 119.94 664.75 134.25 C 677.48 148.56 687.05 161.92 697.78 177.22 C 708.50 192.53 716.89 208.84 724.98 226.03 C 733.06 243.21 740.92 261.49 746.98 280.02 C 753.03 298.56 761.07 318.72 763.00 338.00
M 663.00 672.00 
C 673.87 652.82 689.37 637.39 703.75 618.75 C 718.14 600.12 732.40 584.44 744.92 563.92 C 757.44 543.40 769.01 521.69 773.00 496.00 C 776.99 470.31 773.09 435.68 766.02 410.98 C 758.96 386.27 749.70 363.61 740.00 340.00
C 767.40 374.69 784.29 415.10 792.78 460.22 C 801.27 505.35 782.54 556.28 753.70 589.70 C 724.86 623.11 697.08 647.73 663.00 672.00
M 308.00 677.00 
C 289.96 674.39 267.99 669.42 248.00 670.00 C 228.01 670.58 207.60 675.09 189.93 680.93 C 172.25 686.76 156.44 693.03 141.11 701.11 C 125.77 709.18 111.05 715.83 96.30 725.31 C 81.56 734.78 68.87 744.64 54.00 752.00
C 72.62 724.81 91.95 695.47 118.75 674.75 C 145.55 654.04 177.39 624.88 213.02 628.98 C 248.66 633.08 278.38 659.95 308.00 677.00 Z"/>
</g>
<g fill="None" fill-opacity="0.0" stroke="#EFEFEF" stroke-opacity="1.00" stroke-width="0.3"><path d="
M 763.00 338.00 
C 761.07 318.72 753.03 298.56 746.98 280.02 C 740.92 261.49 733.06 243.21 724.98 226.03 C 716.89 208.84 708.50 192.53 697.78 177.22 C 687.05 161.92 677.48 148.56 664.75 134.25 C 652.02 119.94 640.79 109.66 625.70 98.30 C 610.60 86.94 596.19 77.52 578.74 69.26 C 561.30 60.99 542.93 52.29 523.00 49.00 C 503.07 45.71 474.88 50.19 457.01 57.01 C 439.14 63.83 421.97 70.47 406.23 81.23 C 390.50 91.99 377.92 102.72 365.23 116.23 C 352.55 129.74 341.21 142.47 331.25 158.25 C 321.30 174.04 310.85 188.96 302.99 205.99 C 295.14 223.03 287.80 241.25 281.78 259.78 C 275.76 278.31 269.93 299.44 265.00 319.00 C 260.06 338.55 254.99 359.88 249.32 379.32 C 243.65 398.76 237.63 418.04 231.32 437.32 C 225.01 456.60 216.76 472.98 209.97 491.97 C 203.19 510.97 193.00 522.93 185.93 542.93 C 178.85 562.92 208.03 572.79 222.26 580.74 C 236.48 588.69 254.82 599.81 268.90 610.10 C 282.99 620.39 297.52 632.09 311.25 643.75 C 324.99 655.40 338.41 666.62 351.92 678.08 C 365.43 689.54 380.93 700.27 394.70 711.30 C 408.48 722.33 423.52 733.28 438.30 743.70 C 453.08 754.13 469.00 763.75 484.77 773.23 C 500.54 782.71 517.71 790.59 533.00 800.00
C 528.09 791.04 517.27 785.54 509.25 776.75 C 501.23 767.97 493.12 761.45 485.25 752.75 C 477.38 744.06 469.32 736.63 461.75 728.25 C 454.18 719.86 446.40 711.17 439.25 702.75 C 432.10 694.33 424.38 685.61 417.25 676.75 C 410.12 667.88 402.48 659.84 395.75 650.25 C 389.02 640.65 381.50 631.59 374.92 622.08 C 368.34 612.57 363.07 602.52 357.31 591.69 C 351.55 580.87 348.22 568.00 346.00 555.00 C 343.78 542.00 346.32 525.04 350.02 513.02 C 353.73 501.01 358.15 489.33 363.68 478.68 C 369.21 468.03 373.79 457.36 380.23 447.23 C 386.67 437.10 392.17 427.76 399.23 418.23 C 406.29 408.70 412.39 398.66 419.30 389.30 C 426.22 379.94 434.24 372.00 440.75 362.75 C 447.26 353.50 455.77 346.00 463.25 337.25 C 470.72 328.49 478.46 320.99 486.75 312.75 C 495.05 304.51 503.57 297.82 512.77 290.77 C 521.96 283.71 530.50 277.46 541.30 271.30 C 552.11 265.15 561.91 259.47 573.99 254.99 C 586.07 250.52 600.31 248.01 614.00 247.00 C 627.69 245.99 645.04 248.10 657.00 252.00 C 668.95 255.90 680.87 259.40 690.97 266.03 C 701.06 272.67 710.15 277.81 719.25 285.75 C 728.35 293.69 734.93 300.76 743.08 309.92 C 751.24 319.08 756.34 328.09 763.00 338.00 Z"/>
</g>
<g fill="None" fill-opacity="0.0" stroke="#EFEFEF" stroke-opacity="0.98" stroke-width="0.3"><path d="
M 663.00 672.00 
C 697.08 647.73 724.86 623.11 753.70 589.70 C 782.54 556.28 801.27 505.35 792.78 460.22 C 784.29 415.10 767.40 374.69 740.00 340.00
C 749.70 363.61 758.96 386.27 766.02 410.98 C 773.09 435.68 776.99 470.31 773.00 496.00 C 769.01 521.69 757.44 543.40 744.92 563.92 C 732.40 584.44 718.14 600.12 703.75 618.75 C 689.37 637.39 673.87 652.82 663.00 672.00 Z"/>
</g>
<g fill="None" fill-opacity="0.0" stroke="#EFEFEF" stroke-opacity="0.99" stroke-width="0.3"><path d="
M 308.00 677.00 
C 278.38 659.95 248.66 633.08 213.02 628.98 C 177.39 624.88 145.55 654.04 118.75 674.75 C 91.95 695.47 72.62 724.81 54.00 752.00
C 68.87 744.64 81.56 734.78 96.30 725.31 C 111.05 715.83 125.77 709.18 141.11 701.11 C 156.44 693.03 172.25 686.76 189.93 680.93 C 207.60 675.09 228.01 670.58 248.00 670.00 C 267.99 669.42 289.96 674.39 308.00 677.00 Z"/>
</g>
<g fill="#000000" fill-opacity="0.00" stroke="None">
<path d="
M 0.00 1024.00 
L 1024.00 1024.00
L 1024.00 0.00
L 0.00 0.00
L 0.00 1024.00
M 763.00 338.00 
C 756.34 328.09 751.24 319.08 743.08 309.92 C 734.93 300.76 728.35 293.69 719.25 285.75 C 710.15 277.81 701.06 272.67 690.97 266.03 C 680.87 259.40 668.95 255.90 657.00 252.00 C 645.04 248.10 627.69 245.99 614.00 247.00 C 600.31 248.01 586.07 250.52 573.99 254.99 C 561.91 259.47 552.11 265.15 541.30 271.30 C 530.50 277.46 521.96 283.71 512.77 290.77 C 503.57 297.82 495.05 304.51 486.75 312.75 C 478.46 320.99 470.72 328.49 463.25 337.25 C 455.77 346.00 447.26 353.50 440.75 362.75 C 434.24 372.00 426.22 379.94 419.30 389.30 C 412.39 398.66 406.29 408.70 399.23 418.23 C 392.17 427.76 386.67 437.10 380.23 447.23 C 373.79 457.36 369.21 468.03 363.68 478.68 C 358.15 489.33 353.73 501.01 350.02 513.02 C 346.32 525.04 343.78 542.00 346.00 555.00 C 348.22 568.00 351.55 580.87 357.31 591.69 C 363.07 602.52 368.34 612.57 374.92 622.08 C 381.50 631.59 389.02 640.65 395.75 650.25 C 402.48 659.84 410.12 667.88 417.25 676.75 C 424.38 685.61 432.10 694.33 439.25 702.75 C 446.40 711.17 454.18 719.86 461.75 728.25 C 469.32 736.63 477.38 744.06 485.25 752.75 C 493.12 761.45 501.23 767.97 509.25 776.75 C 517.27 785.54 528.09 791.04 533.00 800.00
C 517.71 790.59 500.54 782.71 484.77 773.23 C 469.00 763.75 453.08 754.13 438.30 743.70 C 423.52 733.28 408.48 722.33 394.70 711.30 C 380.93 700.27 365.43 689.54 351.92 678.08 C 338.41 666.62 324.99 655.40 311.25 643.75 C 297.52 632.09 282.99 620.39 268.90 610.10 C 254.82 599.81 236.48 588.69 222.26 580.74 C 208.03 572.79 178.85 562.92 185.93 542.93 C 193.00 522.93 203.19 510.97 209.97 491.97 C 216.76 472.98 225.01 456.60 231.32 437.32 C 237.63 418.04 243.65 398.76 249.32 379.32 C 254.99 359.88 260.06 338.55 265.00 319.00 C 269.93 299.44 275.76 278.31 281.78 259.78 C 287.80 241.25 295.14 223.03 302.99 205.99 C 310.85 188.96 321.30 174.04 331.25 158.25 C 341.21 142.47 352.55 129.74 365.23 116.23 C 377.92 102.72 390.50 91.99 406.23 81.23 C 421.97 70.47 439.14 63.83 457.01 57.01 C 474.88 50.19 503.07 45.71 523.00 49.00 C 542.93 52.29 561.30 60.99 578.74 69.26 C 596.19 77.52 610.60 86.94 625.70 98.30 C 640.79 109.66 652.02 119.94 664.75 134.25 C 677.48 148.56 687.05 161.92 697.78 177.22 C 708.50 192.53 716.89 208.84 724.98 226.03 C 733.06 243.21 740.92 261.49 746.98 280.02 C 753.03 298.56 761.07 318.72 763.00 338.00
M 663.00 672.00 
C 673.87 652.82 689.37 637.39 703.75 618.75 C 718.14 600.12 732.40 584.44 744.92 563.92 C 757.44 543.40 769.01 521.69 773.00 496.00 C 776.99 470.31 773.09 435.68 766.02 410.98 C 758.96 386.27 749.70 363.61 740.00 340.00
C 767.40 374.69 784.29 415.10 792.78 460.22 C 801.27 505.35 782.54 556.28 753.70 589.70 C 724.86 623.11 697.08 647.73 663.00 672.00
M 308.00 677.00 
C 289.96 674.39 267.99 669.42 248.00 670.00 C 228.01 670.58 207.60 675.09 189.93 680.93 C 172.25 686.76 156.44 693.03 141.11 701.11 C 125.77 709.18 111.05 715.83 96.30 725.31 C 81.56 734.78 68.87 744.64 54.00 752.00
C 72.62 724.81 91.95 695.47 118.75 674.75 C 145.55 654.04 177.39 624.88 213.02 628.98 C 248.66 633.08 278.38 659.95 308.00 677.00 Z"/>
</g>
<g fill="#EFEFEF" fill-opacity="1.00" stroke="None">
<path d="
M 763.00 338.00 
C 761.07 318.72 753.03 298.56 746.98 280.02 C 740.92 261.49 733.06 243.21 724.98 226.03 C 716.89 208.84 708.50 192.53 697.78 177.22 C 687.05 161.92 677.48 148.56 664.75 134.25 C 652.02 119.94 640.79 109.66 625.70 98.30 C 610.60 86.94 596.19 77.52 578.74 69.26 C 561.30 60.99 542.93 52.29 523.00 49.00 C 503.07 45.71 474.88 50.19 457.01 57.01 C 439.14 63.83 421.97 70.47 406.23 81.23 C 390.50 91.99 377.92 102.72 365.23 116.23 C 352.55 129.74 341.21 142.47 331.25 158.25 C 321.30 174.04 310.85 188.96 302.99 205.99 C 295.14 223.03 287.80 241.25 281.78 259.78 C 275.76 278.31 269.93 299.44 265.00 319.00 C 260.06 338.55 254.99 359.88 249.32 379.32 C 243.65 398.76 237.63 418.04 231.32 437.32 C 225.01 456.60 216.76 472.98 209.97 491.97 C 203.19 510.97 193.00 522.93 185.93 542.93 C 178.85 562.92 208.03 572.79 222.26 580.74 C 236.48 588.69 254.82 599.81 268.90 610.10 C 282.99 620.39 297.52 632.09 311.25 643.75 C 324.99 655.40 338.41 666.62 351.92 678.08 C 365.43 689.54 380.93 700.27 394.70 711.30 C 408.48 722.33 423.52 733.28 438.30 743.70 C 453.08 754.13 469.00 763.75 484.77 773.23 C 500.54 782.71 517.71 790.59 533.00 800.00
C 528.09 791.04 517.27 785.54 509.25 776.75 C 501.23 767.97 493.12 761.45 485.25 752.75 C 477.38 744.06 469.32 736.63 461.75 728.25 C 454.18 719.86 446.40 711.17 439.25 702.75 C 432.10 694.33 424.38 685.61 417.25 676.75 C 410.12 667.88 402.48 659.84 395.75 650.25 C 389.02 640.65 381.50 631.59 374.92 622.08 C 368.34 612.57 363.07 602.52 357.31 591.69 C 351.55 580.87 348.22 568.00 346.00 555.00 C 343.78 542.00 346.32 525.04 350.02 513.02 C 353.73 501.01 358.15 489.33 363.68 478.68 C 369.21 468.03 373.79 457.36 380.23 447.23 C 386.67 437.10 392.17 427.76 399.23 418.23 C 406.29 408.70 412.39 398.66 419.30 389.30 C 426.22 379.94 434.24 372.00 440.75 362.75 C 447.26 353.50 455.77 346.00 463.25 337.25 C 470.72 328.49 478.46 320.99 486.75 312.75 C 495.05 304.51 503.57 297.82 512.77 290.77 C 521.96 283.71 530.50 277.46 541.30 271.30 C 552.11 265.15 561.91 259.47 573.99 254.99 C 586.07 250.52 600.31 248.01 614.00 247.00 C 627.69 245.99 645.04 248.10 657.00 252.00 C 668.95 255.90 680.87 259.40 690.97 266.03 C 701.06 272.67 710.15 277.81 719.25 285.75 C 728.35 293.69 734.93 300.76 743.08 309.92 C 751.24 319.08 756.34 328.09 763.00 338.00 Z"/>
</g>
<g fill="#EFEFEF" fill-opacity="0.98" stroke="None">
<path d="
M 663.00 672.00 
C 697.08 647.73 724.86 623.11 753.70 589.70 C 782.54 556.28 801.27 505.35 792.78 460.22 C 784.29 415.10 767.40 374.69 740.00 340.00
C 749.70 363.61 758.96 386.27 766.02 410.98 C 773.09 435.68 776.99 470.31 773.00 496.00 C 769.01 521.69 757.44 543.40 744.92 563.92 C 732.40 584.44 718.14 600.12 703.75 618.75 C 689.37 637.39 673.87 652.82 663.00 672.00 Z"/>
</g>
<g fill="#EFEFEF" fill-opacity="0.99" stroke="None">
<path d="
M 308.00 677.00 
C 278.38 659.95 248.66 633.08 213.02 628.98 C 177.39 624.88 145.55 654.04 118.75 674.75 C 91.95 695.47 72.62 724.81 54.00 752.00
C 68.87 744.64 81.56 734.78 96.30 725.31 C 111.05 715.83 125.77 709.18 141.11 701.11 C 156.44 693.03 172.25 686.76 189.93 680.93 C 207.60 675.09 228.01 670.58 248.00 670.00 C 267.99 669.42 289.96 674.39 308.00 677.00 Z"/>
</g>
</svg>